<svg xmlns="http://www.w3.org/2000/svg" fill="none" viewBox="0 0 558 447">
    <path fill="#333"
        d="M361.949 33.3786c-23.597-9.8387-47.276-15.1828-71.036-16.0323-15.052-.5411-28.943.1471-41.675 2.0645-29.568 4.4566-57.372 14.9953-83.411 31.6161-15.591 9.9573-29.028 21.0062-40.311 33.1468-7.453 8.0209-13.448 15.1281-17.986 21.3213-10.3355 14.111-18.0558 30.421-25.6425 48.048-.0937.218-.0234.329.2109.334l7.3899.107c.3515.009.5883-.154.7101-.491 3.4172-9.305 7.2844-18.183 12.2696-26.747 18.991-32.5842 46.35-58.569 79.488-76.4879 38.663-20.9066 79.742-28.937 123.237-24.0912 26.269 2.9331 52.509 11.8676 75.684 24.7034 15.455 8.562 30.286 19.7224 44.494 33.4813 20.538 19.8984 36.134 42.4804 45.605 69.1554.049.14.141.262.262.346.121.085.266.128.413.124l6.961-.143a.3783.3783 0 0 0 .177-.048c.055-.03.101-.073.136-.126a.4013.4013 0 0 0 .063-.175.3981.3981 0 0 0-.025-.184c-5.639-14.986-12.853-29.979-22.043-43.071-23.948-34.1223-56.7-60.8832-94.971-76.8514Z" />
    <path fill="#333"
        d="M323.812 101.865c-8.466-4.9623-17.607-13.2063-20.953-22.7673-.08-.223-.186-.2325-.317-.0285-2.54 4.0817-5.517 7.8145-8.93 11.1984a.85.85 0 0 0-.25.5637.8642.8642 0 0 0 .194.5897 249.1905 249.1905 0 0 0 19.062 20.403c.347.333.696.337 1.048.015l10.202-9.44c.225-.204.206-.382-.056-.534ZM230.155 89.3422c-1.204 2.5866-1.157 4.8908.141 6.9126 1.017 1.5852 2.152 2.8002 3.403 3.645 17.4 11.7042 28.746 19.4402 34.038 23.2082 7.14 5.079 20.928 15.264 41.365 30.556 4.31 3.225 8.607 3.182 14.168 2.854.239-.014.345-.14.317-.377-.703-6.713-3.08-12.743-8.74-16.687-24.891-17.342-48.01-34.727-71.81-52.3544-4.606-3.41-10.175-3.5667-12.882 2.2426ZM291.49 93.4934a1.0338 1.0338 0 0 0-.728-.3267 1.0336 1.0336 0 0 0-.743.2903l-.978.9427c-.2.1927-.316.4579-.322.7372-.007.2794.096.55.286.7524l19.105 20.3127c.19.202.452.32.728.327.276.006.543-.098.743-.291l.978-.942c.2-.193.316-.458.322-.738.007-.279-.096-.55-.286-.752L291.49 93.4934ZM302.409 123.315l4.12-3.93c.084-.08.151-.175.199-.282a.8901.8901 0 0 0 .076-.337.8961.8961 0 0 0-.057-.341.8998.8998 0 0 0-.183-.293l-18.232-19.5848c-.379-.4074-.83-.7149-1.254-.855-.425-.1401-.788-.1015-1.01.1075l-3.727 3.5593c-.109.105-.181.248-.21.422-.029.174-.016.375.04.592.055.217.151.445.283.672.132.226.297.447.485.649l18.232 19.585c.079.085.173.154.278.201.105.048.218.075.334.078.115.003.229-.017.337-.058a.8922.8922 0 0 0 .289-.185ZM75.0109 123.165c.061.076.0563.147-.014.214-2.9742 2.84-5.7446 5.823-9.3867 8.101-4.6477 2.898-8.8454 6.742-13.1204 10.195-.2343.19-.2179.349.0493.477 5.5265 2.755 14.5617-.007 19.2234-3.04 3.9797-2.591 8.1141-7.902 9.9633-12.216 2.4328-5.653 4.1695-8.116 9.2531-12.082 4.65-3.621 9.2601-7.29 13.8301-11.006.568-.455.964-.913 1.189-1.374.197-.408.07-.607-.38-.598-8.986.192-17.5078 3.133-25.3336 7.326-9.2813 4.969-15.2297 11.148-17.986 21.201-.0656.227.0141.303.2391.227 4.6477-1.665 8.2336-4.727 12.2695-7.46.075-.053.143-.041.2039.035ZM216.824 102.214c-23.372 4.969-44.578 20.204-59.048 39.027-1.931 2.51-4.545 6.136-7.84 10.878a.068.068 0 0 0-.011.031c0 .012.002.023.007.033.005.01.012.019.022.025.009.006.02.01.031.01l5.829.064c.141.005.256-.047.345-.156 13.211-16.452 27.829-30.064 46.856-38.977 4.092-1.918 7.488-3.152 10.188-3.702 2.651-.541 6.806-1.317 8.979-2.983 1.378-1.054 1.104-2.713-.148-3.66-1.258-.953-3.747-.897-5.21-.59ZM401.409 138.236c-14.745-17.506-35.29-32.32-58.472-36.329-5.583-.968-6.87 4.898-.949 6.002 5.812 1.087 10.34 2.306 13.584 3.659 16.748 6.984 30.98 19.542 44.494 33.987.792.845 2.456 3.056 4.992 6.635.07.1.166.149.288.149l5.534-.092a.116.116 0 0 0 .057-.018.1295.1295 0 0 0 .041-.043.1113.1113 0 0 0 .012-.056.1035.1035 0 0 0-.019-.054c-3.002-4.756-6.061-9.675-9.562-13.84ZM485.755 123.023c.061-.071.129-.078.204-.022 3.933 3.152 8.187 5.867 12.762 8.145.027.012.058.017.088.013a.16.16 0 0 0 .081-.035.1597.1597 0 0 0 .051-.074c.01-.028.012-.06.005-.089-2.067-8.054-6.588-14.317-13.563-18.788-8.621-5.524-19.484-10.194-29.834-10.201-.323 0-.387.128-.19.384.764 1.001 1.777 2.062 3.038 3.182 5.067 4.495 9.837 8.429 14.308 11.804 2.869 2.164 4.205 4.1 5.506 7.261 5.266 12.729 14.351 20.076 28.807 18.289.698-.085 1.453-.292 2.264-.619.038-.015.072-.04.098-.073a.2358.2358 0 0 0 .047-.113.2298.2298 0 0 0-.015-.122.2247.2247 0 0 0-.074-.098c-4.359-3.303-8.015-6.265-13.092-9.646-3.816-2.549-7.35-5.482-10.603-8.8-.084-.085-.087-.173-.007-.263l.119-.135ZM279.473 104.805l-1.892 2.591c-.154.214-.129.399.078.556 4.72 3.621 8.17 6.179 10.35 7.674 2.011 1.376 2.264 1.099.759-.833a120.7863 120.7863 0 0 0-8.733-10.024.3823.3823 0 0 0-.132-.088.3829.3829 0 0 0-.157-.024.36.36 0 0 0-.153.044.3632.3632 0 0 0-.12.104Z" />
    <path fill="#333"
        d="M195.33 130.719c5.343-4.251 10.933-4.286 17.268-5.283.239-.038.461-.149.635-.319.173-.169.291-.388.336-.628.422-2.249-1.132-2.37-2.989-2.883-4.321-1.205-8.587-.961-12.796.733-4.718 1.901-10.21 5.689-12.094 10.565-.441 1.153-.476 2.129-.106 2.926.703 1.509 3.938 2.755 5.014 1.068 1.399-2.2 2.756-4.613 4.732-6.179ZM366.688 123.45c-5.765-2.871-11.749-3.287-17.951-1.246a1.23 1.23 0 0 0-.604.437c-.152.205-.238.453-.246.709l-.05 1.396c-.018.64.284.909.908.804.768-.123 1.523-.159 2.264-.107 7.326.513 16.628 3.147 20.074 10.672 1.61 3.517 6.848 1.16 5.639-2.826-1.238-4.073-6.314-7.981-10.034-9.839ZM230 130.102c.35-.356.613-.793.772-1.287.16-.494.213-1.035.158-1.592-.056-.557-.219-1.12-.481-1.655a5.5589 5.5589 0 0 0-1.046-1.466c-.865-.873-1.975-1.425-3.087-1.534-1.111-.109-2.133.232-2.84.951-.35.355-.612.793-.772 1.287-.159.493-.213 1.034-.157 1.592.055.557.219 1.119.481 1.654.261.536.617 1.034 1.045 1.466.865.873 1.976 1.425 3.087 1.534 1.112.11 2.134-.232 2.84-.95ZM337.355 124.031c-.654-.836-1.66-1.334-2.795-1.386-1.136-.051-2.308.349-3.26 1.113-.471.378-.873.834-1.185 1.341-.311.508-.524 1.057-.628 1.617-.104.561-.097 1.12.023 1.647.119.527.347 1.012.671 1.426.654.836 1.66 1.334 2.795 1.385 1.136.052 2.308-.348 3.26-1.112.471-.378.873-.834 1.185-1.341.311-.508.524-1.058.628-1.618.104-.56.097-1.119-.023-1.646-.119-.528-.347-1.012-.671-1.426ZM249.611 154.39c10.174-5.439 15.089-17.342 16.144-27.38a.9245.9245 0 0 0-.091-.502.9035.9035 0 0 0-.827-.51.904.904 0 0 0-.482.15c-6.546 4.336-13.296 7.952-19.167 13.178-4.985 4.428-7.27 10.287-8.044 16.858-.004.043 0 .087.013.129.012.042.034.08.062.113.029.033.064.059.103.078.039.018.082.028.125.029 4.205.128 8.416-.136 12.164-2.143ZM124.441 134.777a1.142 1.142 0 0 1-.452-.276c-.127-.126-.223-.28-.28-.451l-1.216-3.68c-.064-.197-.184-.37-.346-.496a1.0122 1.0122 0 0 0-.562-.214c-.205-.013-.409.036-.587.141-.177.105-.32.261-.411.448-1.139 2.401-3.14 3.609-6.004 3.623-.858 0-1.299.387-1.322 1.161-.049 1.922 1.821 2.919 1.624 5.325-.094 1.177-.176 2.33-.246 3.46-.004.062.008.124.036.179a.3325.3325 0 0 0 .295.187c.062.001.122-.015.175-.046 1.547-.911 2.982-1.95 4.831-1.495 1.237.309 2.372.84 3.403 1.595.052.039.114.062.179.068.064.006.129-.006.188-.034a.3698.3698 0 0 0 .144-.128.3632.3632 0 0 0 .058-.184l.092-3.367a.843.843 0 0 1 .086-.342.8519.8519 0 0 1 .216-.278l2.932-2.384c.165-.133.29-.309.363-.509.073-.2.09-.417.051-.627-.04-.21-.136-.405-.276-.565-.141-.16-.323-.278-.525-.343l-2.446-.768ZM441.459 132.057a28.0748 28.0748 0 0 1-2.166-1.773.7378.7378 0 0 0-.316-.17.7351.7351 0 0 0-.358-.003.7471.7471 0 0 0-.521.465l-1.357 3.61a.5796.5796 0 0 1-.261.299l-2.756 1.495a.9056.9056 0 0 0-.334.308c-.083.13-.132.28-.143.434-.01.155.018.31.083.45.065.141.165.262.289.352 3.206 2.328 3.333 2.435 3.29 6.564 0 .074.018.146.053.21s.085.118.147.156c.061.039.131.061.204.064.072.003.144-.012.208-.045l4.233-2.136c.267-.138.539-.154.816-.05l3.424 1.275c.066.024.137.031.207.022.069-.01.136-.037.193-.078a.4445.4445 0 0 0 .136-.159.4435.4435 0 0 0 .047-.205c-.004-1.187-.079-2.343-.225-3.468-.309-2.356 1.35-2.691 1.906-4.499a.8423.8423 0 0 0 .032-.335.8337.8337 0 0 0-.106-.321.8189.8189 0 0 0-.225-.251.8029.8029 0 0 0-.306-.139c-2.144-.47-4.38-.748-6.194-2.072ZM351.648 137.888c2.504 3.445 4.177 6.684 8.199 9.062 7.277 4.307 16.889 5.475 25.298 4.969 1.299-.076 1.873-.766 1.723-2.071l-.148-1.303c-.145-1.291-.857-1.918-2.137-1.88-8.374.235-21.91-1.26-26.747-9.589-.117-.204-.169-.425-.155-.662.085-1.362-.009-2.411-.281-3.147-1.568-4.271-10.16-2.378-12.776-.818-2.381 1.423-4.261 3.403-5.639 5.937-2.489 4.585-4.753 8.059-4.008 13.177.052.355.231.677.503.907.272.23.619.35.974.339l3.649-.135c.839-.028 1.09-.432.752-1.21-.949-2.164-1.863-4.542-.85-6.87 2.032-4.677 5.793-7.86 11.032-7.077.253.038.457.162.611.371ZM183.236 146.544c-.98.086-3.007.062-6.082-.071-1.692-.071-2.688.736-2.988 2.421l-.036.178c-.3 1.689.397 2.551 2.089 2.584 5.236.104 8.716.057 10.441-.142 7.678-.897 15.743-3.645 21.846-8.515 1.786-1.424 4.486-4.343 6.729-4.343 2.742 0 5.463 3.325 6.645 5.653 1.153 2.271.007 5.176-.872 7.233-.347.807-.087 1.222.78 1.246l2.982.071c.37.01.735-.098 1.041-.311.307-.212.54-.516.667-.871.717-2.021.598-4.031-.358-6.03-2.173-4.556-4.564-9.639-8.586-12.828-2.404-1.908-8.571-2.727-11.151-1.075-2.616 1.68-2.215 4.122-2.356 6.884-.014.233-.103.429-.267.591-4.633 4.478-14.14 6.749-20.524 7.325ZM533.28 169.404c-.057 2.926-1.899 8.6-1.02 11.113 1.533 4.414 19.695 5.752 23.597 5.617 1.031-.038 1.078-.271.141-.698-10.807-4.947-19.217-11.027-12.994-24.276a.3492.3492 0 0 0 .03-.186.336.336 0 0 0-.069-.174.3396.3396 0 0 0-.149-.113.3438.3438 0 0 0-.185-.018c-6.459 1.21-12.968 1.834-19.526 1.872-26.212.171-52.424.266-78.637.285-90.506.064-181.013.057-271.519.036-28.961-.015-57.951.163-86.9131-.186a9571.8542 9571.8542 0 0 0-49.4015-.455c-6.5602-.043-11.8407-.477-17.8875-1.403-.4969-.08-.6422.114-.436.584 2.8336 6.393 3.5578 13.114-2.4047 17.912-2.8453 2.283-6.2718 4.456-10.2796 6.521-.211.109-.197.178.0421.206 5.611.641 11.0719.084 16.3829-1.673 3.389-1.124 7.0382-2.349 6.757-6.777a248.9153 248.9153 0 0 0-.6328-7.838.4704.4704 0 0 1 .1159-.356.4594.4594 0 0 1 .1515-.111.4433.4433 0 0 1 .1826-.039l504.5062.008c.02 0 .04.003.058.011a.1512.1512 0 0 1 .081.081c.007.019.01.038.009.057Z" />
    <path fill="#333"
        d="M513.923 173.932c-.005-.095-.057-.145-.155-.15-11.074-.263-22.345-.932-33.195-1.004-15.59-.099-31.178-.175-46.764-.227-24.024-.081-48.047-.053-72.071.085-4.598.024-9.283.021-14.055-.007-32.4-.206-64.814.021-97.214.078-43.36.076-86.719.102-130.078.079-21.291-.015-42.6098.526-63.9004.825a141.982 141.982 0 0 0-7.3617.292c-.0984.01-.1477.064-.1477.164s.0493.152.1477.157c6.9891.349 14.0344.811 20.9672.897 37.9619.448 75.9589.327 113.9269.299 96.211-.076 192.422-.119 288.633-.128 17.381 0 27.338.27 41.126-1.189.098-.01.145-.064.141-.164v-.007ZM30.1586 199.454a.4634.4634 0 0 0-.1339-.327.4536.4536 0 0 0-.3231-.136H7.3a.4538.4538 0 0 0-.3232.136.4633.4633 0 0 0-.1338.327v5.624c0 .123.0481.24.1338.327.0857.087.202.136.3232.136h22.4016a.4536.4536 0 0 0 .3231-.136.4652.4652 0 0 0 .1339-.327v-5.624ZM28.0352 297.093c.1875-2.591.5437-5.406 1.0687-8.443.5016-2.891-.3726-5.076-2.6226-6.557-6.0844-4.006-12.8696-5.318-20.3555-3.937-.2578.047-.2719.133-.0422.256 9.2742 4.813 17.9437 11.249 13.2047 23.394-.4453 1.148-.9821 2.214-1.6102 3.196a.2459.2459 0 0 0-.01.255.237.237 0 0 0 .0933.093c.039.022.0832.032.1277.03 2.7609-.129 5.5218-.195 8.2828-.2 167.8081-.391 335.6301-.37 503.4371-.135 2.654.005 7.123.109 13.409.313.328.014.422-.13.281-.434-1.94-4.2-3.48-8.429-2.151-13.099 2.116-7.418 9.527-10.124 16.214-12.558.3-.11.297-.209-.007-.299-7.306-2.129-15.828-.349-22.437 3.153-3.473 1.844-3.347 4.457-2.552 8.202.492 2.301.893 4.591 1.202 6.87a.79.79 0 0 1-.025.331.7778.7778 0 0 1-.417.489c-.1.046-.208.07-.317.069l-503.8949-.035c-.6282 0-.9211-.318-.8789-.954Z" />
    <path fill="#333"
        d="M53.6711 292.038a381.3749 381.3749 0 0 0 39.6492 2.093c124.8657.081 249.7287.026 374.5897-.163 10.205-.015 20.402-.328 30.593-.94 4.116-.252 8.215-.674 12.298-1.267.529-.081.879-.166 1.047-.257.539-.303.509-.491-.091-.562-17.065-2.129-34.355-3.538-51.574-3.538-120.474-.038-240.945-.043-361.4135-.014-9.1875.004-21.3187.73-36.3937 2.178-3.607.349-7.5586 1.025-11.2078 1.445-1.3875.162-1.3969.385-.0282.669.586.124 1.4297.242 2.5313.356ZM226.527 431.075c-59.111-16.815-112.247-59.922-136.42-118.021-.0797-.195-.225-.289-.4359-.285l-7.2633.2c-.1875.004-.2508.099-.1898.284.464 1.334.9867 2.642 1.5679 3.923 6.4828 14.174 14.2594 28.078 23.6181 40.508 25.298 33.612 57.544 58.258 96.736 73.939 37.933 15.171 80.297 18.054 120.129 10.159 20.475-4.058 40.605-11.825 58.907-21.877 29.44-16.182 54.211-39.248 73.702-66.578 5.719-8.021 11.245-17.482 16.58-28.384 2.479-5.064 4.228-8.954 5.245-11.668.084-.214.012-.321-.218-.321l-6.785.121a1.322 1.322 0 0 0-.734.24c-.216.152-.384.366-.482.615-9.127 23.379-24.04 43.996-41.464 61.716-38.095 38.721-88.987 61.523-143.219 62.619-20.032.406-40.142-1.744-59.274-7.19Z" />
    <path fill="#333"
        d="M158.338 324.794c14.105 17.299 34.756 33.545 57.164 36.699 2.11.292 6.012.505 7.299-1.524 1.652-2.605-1.203-4.264-3.446-4.271-6.96-.015-13.514-2.342-19.617-5.539-16.938-8.885-30.6-21.564-42.658-36.365a.3927.3927 0 0 0-.138-.108.392.392 0 0 0-.172-.034l-5.955.285c-.017 0-.033.004-.047.013a.0882.0882 0 0 0-.034.035.1082.1082 0 0 0-.011.047c.001.017.006.033.014.047 1.965 3.346 4.498 6.918 7.601 10.715ZM342.142 361.72c1.655.11 3.295.008 4.922-.306 23.006-4.435 43.334-19.527 57.248-38.187 2.654-3.555 4.615-6.59 5.886-9.105a.139.139 0 0 0 .014-.06.1344.1344 0 0 0-.017-.059.1209.1209 0 0 0-.044-.043.1114.1114 0 0 0-.059-.016l-6.152-.071c-.057 0-.113.013-.165.039a.3857.3857 0 0 0-.131.11c-11.714 16.26-27.597 30.193-45.97 37.91-5.339 2.24-10.898 3.498-16.678 3.773-1.636.076-2.665.868-3.087 2.378-.576 2.093 2.757 3.545 4.233 3.637ZM256.811 314.67c-4.641 8.301-10.814 15.199-18.52 20.695a.3784.3784 0 0 0-.112.127.3786.3786 0 0 0-.047.164.386.386 0 0 0 .027.168c.021.053.054.101.096.139l9.12 8.408c.132.121.306.186.485.181.18-.006.351-.08.478-.209a334.3828 334.3828 0 0 0 17.424-19.186c.398-.475.365-.916-.099-1.325-3.178-2.79-6.084-5.849-8.718-9.176a.0834.0834 0 0 0-.033-.022.0972.0972 0 0 0-.038-.005.0917.0917 0 0 0-.036.013.0902.0902 0 0 0-.027.028Z" />
    <path fill="#333"
        d="M352.689 327.833c-6.448-1.552-10.28-5.218-11.644-12.18-.14-.727-.576-1.078-1.307-1.054l-4.501.171c-.74.023-.967.382-.682 1.075 3.804 9.226 10.231 17.84 19.125 22.397 6.638 3.395 13.655 2.463 19.336-2.215 1.35-1.11 3.094-4.057 1.969-5.844-.998-1.588-2.531-.798-3.804.135-3.853 2.833-9.267 6.706-13.5 1.922-.15-.171-.206-.37-.169-.598 1.906-11.654 19.477-10.871 27.732-10.757 1.008.014 1.472-.489 1.392-1.509l-.176-2.264c-.08-.978-.6-1.509-1.561-1.595-6.815-.612-13.073-.137-18.773 1.424-6.511 1.787-8.972 5.966-12.706 10.636-.192.242-.436.328-.731.256ZM209.245 326.865c-3.563-6.16-8.923-9.753-16.081-10.778-5.386-.774-10.612-.961-15.68-.563-.825.067-1.27.518-1.336 1.353l-.239 3.161c-.061.821.314 1.205 1.125 1.153 10.681-.697 22.683-.762 28.28 8.493a.927.927 0 0 1 .126.608.9112.9112 0 0 1-.288.546c-1.678 1.561-3.64 2.603-5.885 3.125-3.705.861-5.857-1.538-8.93-4.172-2.095-1.794-4.985-.313-4.359 2.656 1.252 5.916 9.063 7.902 14.027 7.888 11.609-.043 21.622-13.171 26.48-22.426.324-.612.527-1.402.612-2.37.023-.266-.094-.423-.352-.47-1.804-.342-3.609-.351-5.414-.029a.6637.6637 0 0 0-.32.156.6576.6576 0 0 0-.193.3c-1.744 5.728-5.421 9.587-11.032 11.576-.234.085-.415.016-.541-.207ZM301.255 314.955c-.023-.057-.051-.062-.084-.014-2.02 2.762-4.301 5.303-6.841 7.624-.568.518-.992 1.163-1.273 1.937-.098.28-.047.524.155.733l17.775 18.552c.105.11.249.174.401.178.152.004.301-.052.414-.156l7.622-7.141c.488-.46.469-.894-.056-1.303-7.045-5.474-14.407-12.266-18.113-20.41ZM440.059 317.525c-1.188 2.492-2.348 4.478-5.386 4.777-.214.023-.417.108-.585.246-.167.138-.291.322-.356.529-.065.208-.068.43-.01.639.059.208.177.395.34.536l2.461 2.136a.777.777 0 0 1 .195.252c.048.097.074.203.079.311l.162 4.428c.002.088.027.174.071.251a.5203.5203 0 0 0 .429.259c.087.004.174-.015.252-.055l4.289-2.135c.244-.119.487-.121.731-.008l3.551 1.681c.143.067.306.083.463.046.158-.037.301-.126.409-.253.103-.128.133-.358.091-.69-.14-1.158-.351-2.333-.632-3.524a.6193.6193 0 0 1 0-.284.6376.6376 0 0 1 .126-.257l2.595-3.09a.5906.5906 0 0 0 .124-.261.5903.5903 0 0 0-.016-.289.5786.5786 0 0 0-.153-.244.5665.5665 0 0 0-.251-.139l-3.614-.89c-.552-.133-1.04-.467-1.371-.939l-2.236-3.183a1.026 1.026 0 0 0-.404-.338 1.011 1.011 0 0 0-1.011.086c-.147.101-.265.24-.343.402ZM114.611 326.879l-.239 4.464c-.006.099.016.199.061.287.045.088.113.162.196.214.083.052.179.08.276.081.097 0 .192-.026.275-.076 1.238-.741 2.459-1.408 3.664-2.001 1.251-.619 3.269.797 4.261 1.495.07.051.152.085.239.097a.531.531 0 0 0 .256-.026.5363.5363 0 0 0 .215-.142c.06-.065.103-.143.126-.228a9.539 9.539 0 0 0 .317-3.068c-.113-1.894 1.715-3.225 2.84-4.443a.5657.5657 0 0 0 .135-.241.5686.5686 0 0 0 .003-.278.5513.5513 0 0 0-.128-.245.5471.5471 0 0 0-.228-.154c-3.29-1.146-5.519-1.474-7.312-4.798a1.2067 1.2067 0 0 0-.455-.469c-.192-.11-.41-.164-.631-.156-.22.008-.434.078-.617.202-.183.125-.329.298-.42.501l-1.076 2.371c-.145.316-.36.595-.629.815-.27.22-.586.374-.925.452-.741.171-1.568.432-2.482.783-.966.37-.985 1.096-.056 2.179.07.08.15.152.239.213.679.47 1.305 1.002 1.877 1.595.073.076.13.167.168.266a.801.801 0 0 1 .05.31ZM74.5398 339.502c-4.1554-3.083-7.8539-6.208-12.5859-8.429-.5531-.257-.7078-.103-.4641.462 4.2188 9.739 8.093 16.09 17.5149 21.593 7.8328 4.577 16.8117 8.108 25.9803 8.194.778.005.881-.257.31-.783-5.3231-4.913-10.3364-9.796-16.5099-13.762-5.9132-3.801-5.9976-8.286-9.0421-13.91-5.7586-10.644-15.9469-14.723-27.9352-13.463a.3526.3526 0 0 0-.2934.236.3595.3595 0 0 0-.0114.197.354.354 0 0 0 .0939.172c3.975 4.016 8.3367 7.44 13.0851 10.273 3.0516 1.818 6.3516 4.877 9.9 9.177.1125.133.0985.147-.0422.043ZM485.699 339.174c2.916-3.659 6.349-6.694 10.301-9.105 4.732-2.891 9.225-5.995 13.605-9.44.699-.551.612-.895-.26-1.032-11.081-1.73-22.816 2.854-28.005 13.497-2.229 4.564-4.219 10.337-8.381 13.37-6.132 4.466-12.057 9.298-17.775 14.495a.2546.2546 0 0 0-.082.133.2554.2554 0 0 0 .008.157c.018.051.051.094.094.125.044.031.095.047.148.047 10.097.257 20.482-4.072 28.885-9.454 7.467-4.791 12.107-11.91 15.096-20.175.267-.741.04-.962-.682-.663-4.735 1.975-8.986 4.718-12.755 8.23a.1343.1343 0 0 1-.093.044.1342.1342 0 0 1-.097-.037.1378.1378 0 0 1-.043-.094.1417.1417 0 0 1 .036-.098ZM270.843 328.675a.6533.6533 0 0 0 .166-.466.6505.6505 0 0 0-.209-.449l-1.612-1.485a.6468.6468 0 0 0-.214-.131.648.648 0 0 0-.247-.037.6403.6403 0 0 0-.443.211l-17.982 20.009a.6541.6541 0 0 0-.166.467c.008.171.083.333.209.448l1.612 1.485a.6292.6292 0 0 0 .461.168.6344.6344 0 0 0 .242-.06.6603.6603 0 0 0 .201-.151l17.982-20.009ZM306.698 348.009c.661-.655 1.835-1.189 2.524-2.164a.404.404 0 0 0 .074-.27.4231.4231 0 0 0-.116-.257 2015.3355 2015.3355 0 0 0-15.279-15.74c-.933-.95-1.885-1.764-2.855-2.442a1.2563 1.2563 0 0 0-.842-.222c-.298.028-.578.162-.789.378l-4.261 4.343a.4714.4714 0 0 0-.136.323.462.462 0 0 0 .122.325c5.77 6.45 11.791 12.655 18.063 18.616.125.119.275.206.44.253.164.048.337.056.505.022.167-.033.325-.106.459-.214.134-.107.241-.245.312-.402.422-.954 1.015-1.804 1.779-2.549ZM329.395 329.976c-2.159 4.549 5.259 11.12 8.36 6.671.487-.698.604-1.358.351-1.979-.851-2.086-4.176-6.536-6.44-6.315-1.046.1-1.803.641-2.271 1.623ZM224.985 337.627c.355.241.776.375 1.238.395.462.02.957-.075 1.456-.28.499-.204.992-.514 1.452-.911.459-.398.876-.875 1.227-1.405.707-1.07 1.101-2.289 1.094-3.39-.008-1.1-.415-1.992-1.132-2.478-.355-.241-.776-.375-1.238-.394-.463-.02-.957.075-1.456.279-.499.205-.993.514-1.452.912-.46.397-.877.874-1.227 1.404-.707 1.07-1.101 2.29-1.094 3.39.007 1.101.414 1.992 1.132 2.478ZM270.817 342.727c1.906-2.642 5.717-9.903 3.178-12.195a1.3637 1.3637 0 0 0-.99-.356c-.364.019-.705.182-.95.455l-17.016 18.937c-.647.721-.577 1.362.211 1.922l2.89 2.051c.801.564 1.561.515 2.278-.15 5.456-5.064 8.923-8.619 10.399-10.664ZM300.166 353.619c.085.041.179.062.274.062.095 0 .189-.021.274-.062a.6541.6541 0 0 0 .352-.427c.145-.57-.052-1.113-.591-1.631-5.871-5.588-11.348-11.853-17.121-17.206a.8277.8277 0 0 0-.829-.177.8368.8368 0 0 0-.365.247.839.839 0 0 0-.191.399l-.085.477c-.178 1.002.087 1.863.795 2.585 4.425 4.475 8.372 8.436 11.841 11.881 1.49 1.481 3.372 2.765 5.646 3.852ZM277.019 355.648c4.176-2.62 8.655-4.3 13.296-4.756.647-.061.759-.339.337-.833-3.511-4.119-7.289-7.994-11.334-11.625-.469-.423-.832-.344-1.09.235-2.109 4.762-3.417 11.732-1.708 16.801.089.27.255.33.499.178ZM240.759 374.599c-1.582 1.908-5.548 7.553-1.899 8.999 4.296 1.694 6.933 1.957 10.498-1.389 8.093-7.582 15.476-15.797 23.498-23.557a.5086.5086 0 0 0 .121-.184c.027-.07.038-.146.034-.222l-.436-7.525a.1033.1033 0 0 0-.019-.053.0892.0892 0 0 0-.045-.034.0895.0895 0 0 0-.056-.004.1081.1081 0 0 0-.049.027c-2.761 2.701-6.415 5.371-10.961 8.009-5.71 3.318-15.919 10.167-20.686 15.933ZM299.16 357.371c-4.936-3.375-8.48-4.094-14.189-1.759a.4357.4357 0 0 0-.183.149.4295.4295 0 0 0-.077.221c-.009.285.096.53.316.734a1003.774 1003.774 0 0 1 26.178 24.76c3.492 3.422 7.209 3.811 11.151 1.168 4.402-2.962-1.631-9.426-4.099-11.348a377.1354 377.1354 0 0 0-19.097-13.925ZM241.652 93.1366c0-.8402-.33-1.6459-.917-2.2401-.587-.5941-1.383-.9279-2.212-.9279-.83 0-1.626.3338-2.213.9279-.587.5942-.916 1.3999-.916 2.2401 0 .8403.329 1.6461.916 2.2402.587.5941 1.383.9279 2.213.9279.829 0 1.625-.3338 2.212-.9279.587-.5941.917-1.3999.917-2.2402ZM316.886 148.125c0-.823-.323-1.613-.898-2.195-.575-.582-1.355-.909-2.168-.909-.813 0-1.592.327-2.167.909-.575.582-.898 1.372-.898 2.195 0 .823.323 1.613.898 2.195.575.582 1.354.909 2.167.909.813 0 1.593-.327 2.168-.909.575-.582.898-1.372.898-2.195ZM249.088 148.724c.029-.362-.017-.727-.137-1.074a2.764 2.764 0 0 0-.557-.947c-.25-.278-.553-.507-.894-.675a3.053 3.053 0 0 0-1.094-.3c-.381-.032-.764.009-1.127.119s-.699.288-.989.522c-.29.234-.528.521-.7.844-.173.323-.276.676-.305 1.039-.029.362.018.727.137 1.074.119.347.309.668.558.947.249.278.553.507.894.675.341.167.712.269 1.093.3.381.031.764-.009 1.127-.119.364-.11.7-.288.989-.522.29-.234.528-.521.7-.844.173-.323.277-.676.305-1.039ZM339.154 144.857c.074.014.168-.099.262-.315.093-.216.18-.516.239-.835.03-.158.052-.316.065-.465.013-.148.018-.285.013-.401-.005-.117-.019-.211-.041-.278-.022-.067-.052-.105-.089-.112-.073-.014-.167.099-.261.315s-.18.516-.239.835c-.03.158-.052.316-.065.465-.014.148-.018.285-.013.401.005.117.018.212.041.278.022.067.052.105.088.112Z" />
    <path fill="#333"
        d="M293.23 334.105c.081-.089.116-.221.101-.387-.014-.166-.077-.364-.185-.582-.108-.218-.259-.451-.444-.688-.185-.236-.401-.47-.635-.689-.234-.218-.482-.417-.73-.585-.247-.168-.489-.302-.712-.393-.224-.092-.423-.14-.588-.141-.165-.001-.291.044-.373.134-.081.089-.116.221-.101.387.014.166.077.364.185.582.108.217.259.451.444.687.185.237.401.471.635.69.234.218.482.417.729.585.248.168.49.302.713.393.223.092.423.139.588.141.165.001.291-.045.373-.134ZM305.709 347.27c.101-.089.171-.212.206-.362.034-.15.034-.325-.003-.513-.036-.189-.108-.388-.21-.587a3.0528 3.0528 0 0 0-.386-.569c-.309-.359-.685-.632-1.048-.759-.362-.127-.68-.098-.884.082-.101.089-.171.212-.206.362-.035.15-.034.325.002.513.037.189.108.388.21.587.103.198.234.391.387.569.308.359.685.632 1.047.759.362.127.68.098.885-.082ZM245.706 380.349c.41-.389.631-.947.616-1.55-.015-.603-.265-1.202-.695-1.666-.43-.464-1.005-.754-1.599-.807-.593-.053-1.157.136-1.566.525-.409.389-.63.946-.616 1.55.015.603.265 1.202.696 1.666.43.464 1.005.754 1.598.807.594.053 1.157-.136 1.566-.525ZM317.04 380.364c.626.086 1.263-.099 1.769-.513.507-.415.842-1.025.931-1.697.09-.671-.073-1.35-.453-1.885-.379-.536-.944-.885-1.571-.971-.626-.085-1.263.099-1.769.514-.506.414-.841 1.024-.931 1.696-.09.671.073 1.35.453 1.885.379.536.944.885 1.571.971ZM405.569 235.556l-.232 10.65c0 .019-.01.029-.029.029l-.196-.007c-.104 0-.155-.052-.155-.157l-.049-10.607c0-.062-.031-.095-.092-.1l-.358-.014c-.169-.005-.254.078-.254.249l-.393 27.024c-.005.266.126.396.393.392 6.197-.109 12.34-.185 18.429-.228 6.04-.05 7.278-1.374 10.238-6.158.122-.2.3-.306.534-.321 2.651-.135 3.853 2.713 3.874 5.005.038 4.115.003 8.382-.105 12.8a.5682.5682 0 0 1-.192.418.5582.5582 0 0 1-.202.115.553.553 0 0 1-.232.023l-1.849-.214c-.281-.033-.492-.173-.633-.42-.844-1.462-2.304-2.197-4.38-2.207-14.002-.052-28.006-.024-42.012.086-1.078.009-1.662-.587-1.751-1.787-.014-.223.056-.411.211-.563 1.638-1.637 3.403-1.808 3.396-4.52-.014-9.25-.044-18.633-.091-28.149a1.0962 1.0962 0 0 0-.189-.606 1.0854 1.0854 0 0 0-.493-.398c-3.502-1.381-6.827-2.243-9.633-5.019-.197-.2-.159-.325.113-.378 2.442-.469 4.844-.996 7.207-1.58 1.954-.479 2.946-1.661 2.974-3.545.136-8.667.208-17.331.218-25.992 0-1.922-1.181-2.706-2.56-3.474a1.646 1.646 0 0 1-.543-.494 1.6614 1.6614 0 0 1-.274-.684c-.038-.246-.021-.497.051-.735s.197-.455.366-.636c.379-.413 1.005-.617 1.877-.612 13.303.066 26.604.054 39.902-.036 1.566-.009 3.556-.221 5.97-.634 2.854-.484 3.157 1.531 3.122 3.852-.071 4.324-.16 8.811-.268 13.462a.593.593 0 0 1-.082.288.5898.5898 0 0 1-.21.211.5707.5707 0 0 1-.284.082.588.588 0 0 1-.288-.068c-.216-.114-.403-.093-.563.064-.126.119-.278.206-.445.253-.167.048-.345.055-.521.022a1.266 1.266 0 0 1-.496-.215 1.352 1.352 0 0 1-.373-.409c-3.361-5.631-6.202-6.877-12.945-7.14-5.634-.224-11.228-.299-16.783-.228-.092.002-.18.04-.244.106a.3593.3593 0 0 0-.101.25l.043 19.214c0 .266.131.399.393.399l18.83-.029c.253 0 .503.051.737.149.234.098.446.242.625.423s.321.396.418.633c.097.236.147.49.147.746l-.008 12.031c0 .347-.161.461-.485.342l-.175-.064c-.118-.043-.176-.128-.176-.256l-.007-12.651c0-.256-.129-.37-.387-.342l-.19.022a.2451.2451 0 0 0-.163.082.2517.2517 0 0 0-.062.174l.071 12.103c0 .175-.087.261-.261.256l-17.515-.484a.1924.1924 0 0 0-.148.058.1864.1864 0 0 0-.046.068.1972.1972 0 0 0-.016.08Zm30.684-26.376c.078 0 .153-.853.209-2.371.055-1.518.086-3.577.086-5.724 0-2.146-.031-4.205-.086-5.723-.056-1.518-.131-2.371-.209-2.371-.078 0-.154.853-.209 2.371-.055 1.518-.086 3.577-.086 5.723 0 2.147.031 4.206.086 5.724.055 1.518.131 2.371.209 2.371Zm.156 50.578c0-.049-.019-.096-.052-.131a.1862.1862 0 0 0-.129-.056l-.253-.003c-.024 0-.048.004-.07.013a.1755.1755 0 0 0-.06.04.1814.1814 0 0 0-.04.059.1775.1775 0 0 0-.015.071l-.171 14.137c0 .049.018.097.052.132s.08.055.129.056l.253.003c.024 0 .048-.004.07-.013a.1856.1856 0 0 0 .1-.099c.01-.023.015-.047.015-.071l.171-14.138ZM367 192l-14.5.24v73.5s-2.5 1.24-3.5 3 .5 2.5.5 2.5H369c1.5 0 3-.76 1.5-2.5s-3.5-3-3.5-3V192ZM503.246 193.854c-.957 4.372-2.511 8.095-6.068 10.814-1.02.783-2.447 2.364-4.086 2.129a1.2619 1.2619 0 0 1-.566-.23 1.2735 1.2735 0 0 1-.395-.472 1.3073 1.3073 0 0 1-.131-.603c.006-.209.063-.414.164-.596 1.964-3.479 2.961-7.245 2.989-11.298 0-.079.015-.157.045-.23a.595.595 0 0 1 .128-.195c.055-.056.12-.1.192-.13a.5775.5775 0 0 1 .225-.043l6.87.057c.534.005.745.271.633.797ZM334.447 256.942l-.436 16.339a.5548.5548 0 0 1-.09.293.542.542 0 0 1-.232.2c-.095.043-.2.058-.304.044a.5482.5482 0 0 1-.281-.125c-1.636-1.395-3.593-2.088-5.871-2.078-15.169.066-30.338.135-45.507.206-1.729.007-2.433-.947-1.575-2.563.103-.199.249-.356.436-.47 2.002-1.21 3.371-2.75 4.106-4.62 1.196-3.037 2.286-5.603 3.27-7.696 2.201-4.67 3.755-8.493 5.927-12.586 1.074-2.027 2.189-4.35 3.347-6.97 1.406-3.182 3.157-6.08 4.5-9.312 1.589-3.83 3.832-7.454 5.435-10.999 1.407-3.104 2.602-5.759 4.437-9.091a43.8552 43.8552 0 0 0 2.081-4.321.4227.4227 0 0 0 .029-.196.4138.4138 0 0 0-.206-.321.4033.4033 0 0 0-.188-.053c-3.76-.071-7.55-.071-11.37 0-9.218.171-10.659 3.339-14.428 10.885-.159.318-.415.453-.766.406-2.499-.313-3.61-1.718-3.333-4.215.38-3.393.799-6.772 1.258-10.137.289-2.122-1.469-4.129-1.195-6.294.032-.26.162-.499.363-.666.202-.166.459-.249.72-.231 2.594.186 5.098.449 7.664.442 12.891-.043 25.781-.019 38.672.071.656.005 1.31.074 1.962.207a.5714.5714 0 0 1 .45.469c.117.75.103 1.498-.043 2.243-.042.218-.161.38-.358.484-1.146.591-1.906 1.075-2.503 2.299-3.08 6.287-5.864 12.68-9.007 18.959-5.843 11.675-11.229 23.607-16.721 35.453-.9 1.936-2.299 4.229-2.348 6.422-.005.057.007.061.035.014 9.999-20.297 19.99-40.686 29.341-61.296a.2278.2278 0 0 1 .063-.081.2226.2226 0 0 1 .092-.043.2158.2158 0 0 1 .101.003c.033.01.064.026.089.05l.169.149c.1.091.17.211.199.344.029.133.016.272-.038.397-1.448 3.317-2.749 6.863-4.232 9.988a3886.442 3886.442 0 0 1-19.182 39.839c-1.711 3.502-3.37 7.031-4.978 10.586-.316.697-.724 1.075-1.209 1.63a.1933.1933 0 0 0-.044.1.2.2 0 0 0 .082.192.193.193 0 0 0 .103.035c5.943.086 11.875.005 17.796-.242 6.532-.27 8.697-3.032 11.018-8.749.084-.218.243-.318.478-.299 1.204.1 2.25.56 3.136 1.381.182.166.276.375.281.627.091 7.233.33 13.483-.316 19.492-.024.185-.129.273-.317.263-.08-.005-.157-.009-.232-.014-.084 0-.127-.043-.127-.128.015-5.605.085-11.206.211-16.801 0-.019-.007-.029-.021-.029l-.267-.007c-.08-.005-.122.036-.126.121ZM57.113 228.829l6.7992 1.772c.2672.071.3047.209.1125.413-1.9875 2.141-4.2961 3.823-6.9257 5.048a.64.64 0 0 0-.2572.223.6533.6533 0 0 0-.1085.325c-.4711 8.173-.1898 15.854-2.5382 23.799-3.0446 10.316-12.9094 17.086-23.1539 17.449-9.4711.335-19.5329-3.118-26.6696-9.995-4.957-4.763-6.2297-12.544-1.0265-17.499 3.9515-3.759 10.9546-4.364 14.1257.79 2.5524 4.151-.1968 6.393-2.932 9.17-.1734.175-.2133.379-.1195.612 1.5609 3.823 5.8781 6.315 9.675 7.326 4.507 1.196 9.1758.391 12.6492-2.699 4.275-3.815 5.1609-10.429 5.175-16.174.0422-15.843.0375-31.683-.0141-47.521a26.2076 26.2076 0 0 0-.2953-3.823c-.0375-.251-.157-.45-.3586-.598-.5578-.408-1.357-.916-2.3976-1.523-1.9899-1.16-.3586-3.147 1.5047-3.111 6.2671.109 12.5367.128 18.8086.057.7687-.01 1.3359.194 1.7015.612.1544.174.2648.384.3215.611.0568.227.0582.464.0043.692-.054.227-.1617.438-.314.614a1.4175 1.4175 0 0 1-.5602.397c-4.1766 1.623-3.9727 4.755-3.9797 9.191-.0188 6.611-.0094 13.225.0281 19.841.0047 1.167.0961 2.325.2742 3.474.0422.28.1993.455.4711.527ZM107.161 257.483l-19.5253.135c-.2157 0-.3633.1-.443.299-.9914 2.549-3.0375 7.162-2.6719 9.298.0375.242.1547.434.3516.577.9492.683 3.15 1.965 2.6578 3.331a.6673.6673 0 0 1-.1972.283.656.656 0 0 1-.309.145c-1.2047.223-1.9946.318-2.3696.284a96.3509 96.3509 0 0 0-17.3953.022c-1.4578.128-2.257-.392-2.3976-1.559-.0347-.28.0012-.564.1044-.826.1033-.263.2705-.496.4862-.676 2.707-2.279 3.6351-2.798 4.6687-6.408 2.4563-8.557 4.8539-17.309 7.193-26.255.0984-.389-.0234-.686-.3656-.89-1.9031-1.125-3.5696-2.534-4.9992-4.229-.1969-.237-.1711-.444.0773-.619 1.4695-1.061 4.3453-1.025 6.1524-1.246.2252-.028.4321-.145.5765-.327.5906-.736 1.0125-1.56 1.2656-2.471a846.0173 846.0173 0 0 1 8.3039-27.772 1.9105 1.9105 0 0 0-.0121-1.195 1.9157 1.9157 0 0 0-.7191-.955l-1.0617-.733a1.4167 1.4167 0 0 1-.3966-.42 1.426 1.426 0 0 1-.1612-1.123c.0513-.188.1407-.363.2625-.514.4031-.503.9984-.753 1.7859-.748 7.8469.038 14.1066.014 18.7806-.071 1.003-.019 1.877.195 2.623.641.234.137.356.344.365.619.024.517-.065 1.018-.267 1.502-.103.233-.279.373-.527.42-1.444.28-2.011 1.109-1.702 2.485 2.18 9.675 5.168 19.278 7.847 29.089.085.31.252.592.482.816.23.225.515.383.826.458l6.497 1.552a.5169.5169 0 0 1 .368.338c.028.083.035.172.019.259a.5169.5169 0 0 1-.106.236c-1.275 1.566-2.829 2.765-4.662 3.595a.8913.8913 0 0 0-.435.434.8882.8882 0 0 0-.05.613c2.602 9.44 5.098 18.979 7.516 28.469.598 2.356 2.743 3.225 4.184 4.87.167.19.285.419.344.667.059.247.057.506-.007.752a1.524 1.524 0 0 1-.356.657c-.17.186-.384.326-.621.408-.342.119-.872.143-1.589.071a97.2158 97.2158 0 0 0-18.647-.128c-.754.067-1.392.055-1.912-.035a.8442.8442 0 0 1-.407-.192.8609.8609 0 0 1-.278-.829c.031-.151.103-.29.207-.403.834-.916 1.603-1.714 2.306-2.392 2.383-2.293.021-5.019-1.006-7.24a.8917.8917 0 0 1-.084-.342l-.091-2.264c-.014-.309-.174-.463-.479-.463Zm-15.0464-15.676 5.1398-20.503c.0094-.043.0094-.064 0-.064l-.2109-.057a.237.237 0 0 0-.1856.022.2415.2415 0 0 0-.0704.063.2367.2367 0 0 0-.0393.086l-5.4281 20.759a.5883.5883 0 0 0-.0058.263.5766.5766 0 0 0 .109.238c.0538.07.1226.126.201.164a.5594.5594 0 0 0 .2512.054l10.7015-.199c.258-.005.356-.136.295-.392l-4.6121-20.254c-.1875-.816-.3492-.811-.4852.014-1.0968 6.593-3.3679 13.178-4.8375 19.877a.1959.1959 0 0 1-.0592.104.2055.2055 0 0 1-.1095.053l-.3938.064c-.2296.038-.3164-.06-.2601-.292ZM179.344 221.475c.371-9.758.378-17.478.021-23.159-.091-1.41-2.165-1.901-3.093-2.712-.169-.148-.275-.333-.317-.556-.365-1.865.823-2.313 2.405-2.271 5.803.162 11.599.195 17.388.1.886-.021 1.962.014 2.44.89 1.013 1.865-1.849 2.833-2.974 3.467a.7826.7826 0 0 0-.258.234.769.769 0 0 0-.129.321c-.183 1.144-.279 2.444-.288 3.901-.038 8.501 0 17.048.112 25.644.007.332.119.654.321.916.202.261.481.45.797.536l5.787 1.573c.092.025.175.074.241.143.066.069.113.154.135.247.022.094.02.191-.008.283a.5323.5323 0 0 1-.15.238c-2.058 1.889-4.376 3.363-6.954 4.421-.206.086-.309.243-.309.47-.005 8.819-.014 17.615-.028 26.391-.005 1.319.114 2.627.358 3.923.041.225.158.429.331.576.712.603 1.441 1.173 2.186 1.709 1.153.826 1.313 1.689.478 2.591-.143.157-.319.28-.514.363-.195.082-.406.121-.618.114-6.825-.223-13.53-.258-20.116-.107-1.523.038-1.88-.707-1.069-2.235.074-.141.178-.265.303-.363 1.546-1.203 3.403-1.986 3.473-4.336.295-9.582.38-19.271.253-29.067a.7413.7413 0 0 0-.214-.514.7207.7207 0 0 0-.51-.212l-21.495.05c-.033 0-.067.007-.098.02a.2618.2618 0 0 0-.083.057.2502.2502 0 0 0-.054.086.2461.2461 0 0 0-.018.1c.136 9.829.132 19.388-.014 28.676-.037 2.463.956 4.108 2.981 4.934.275.111.5.32.633.587.133.268.166.575.092.865-.277 1.101-1.041 1.628-2.292 1.58-6.441-.256-12.966-.341-19.575-.256a1.117 1.117 0 0 1-.467-.093 1.1247 1.1247 0 0 1-.387-.279c-.108-.12-.189-.262-.238-.416a1.161 1.161 0 0 1-.048-.479c.162-1.545 2.412-2.912 3.643-3.738a.9132.9132 0 0 0 .379-.584c.188-.958.286-2.14.296-3.545.079-8.794.098-17.608.056-26.44a.5609.5609 0 0 0-.108-.329.561.561 0 0 0-.279-.205c-2.854-.969-6.244-2.364-8.402-4.564a.3116.3116 0 0 1-.077-.14.3138.3138 0 0 1 .081-.299.3093.3093 0 0 1 .136-.08l7.102-1.951c1.031-.285 1.549-.966 1.554-2.043.037-9.317.03-18.42-.021-27.309-.014-3.261-4.774-2.649-3.298-5.674a.745.745 0 0 1 .172-.225.7088.7088 0 0 1 .243-.138c.708-.238 1.439-.354 2.194-.349 5.92.043 11.894.04 17.922-.007.32-.005.632.103.883.304s.426.483.496.799c.103.465.1.921-.007 1.367-.057.247-.197.432-.422.555-.455.247-.912.47-1.371.67-1.125.484-1.707 1.381-1.744 2.691-.206 7.465-.162 14.931.133 22.396.01.209.118.314.324.314l21.375-.107c.206 0 .314-.107.323-.32ZM246.711 257.355l-19.407.349c-.332.005-.557.164-.675.477l-2.875 7.617c-.108.284-.123.595-.043.887.079.293.25.551.486.737l1.968 1.559c1.974 1.556 1.716 2.477-.773 2.762-1.99.228-4.795-.427-6.849-.427-4.183-.007-8.831.74-12.923.32a1.1013 1.1013 0 0 1-.536-.209 1.1258 1.1258 0 0 1-.361-.453 1.143 1.143 0 0 1-.09-.575c.021-.196.092-.383.207-.543 1.659-2.278 3.318-3.994 4.155-6.742 1.99-6.549 4.05-12.878 5.906-19.663a225.446 225.446 0 0 1 2.215-7.532.8304.8304 0 0 0 0-.503.816.816 0 0 0-.288-.408l-4.704-3.624a.7132.7132 0 0 1-.244-.333.7336.7336 0 0 1 .18-.775.7185.7185 0 0 1 .366-.187l5.78-1.082c.255-.046.495-.156.697-.319.203-.162.362-.374.463-.614a38.6868 38.6868 0 0 0 1.449-3.972c2.503-8.325 5.093-16.624 7.769-24.896.23-.707.23-1.395 0-2.065-.084-.242-.239-.42-.464-.534l-1.652-.825c-.233-.119-.42-.311-.533-.547a1.188 1.188 0 0 1-.093-.756c.225-1.087 1.033-1.623 2.426-1.609 6.548.057 13.099.026 19.652-.093 1.167-.021 2.06.399 2.313 1.567.084.378.021.775-.176 1.109-.198.334-.515.579-.885.685-2.286.647-1.533 2.32-1.013 4.257 2.391 8.847 4.882 17.931 7.474 27.252.084.3.244.573.465.789.222.216.496.369.794.442l6.166 1.524c.051.012.098.037.137.072.038.036.067.081.083.131.017.05.02.104.01.155-.011.052-.034.1-.068.14-1.364 1.623-2.981 2.929-4.852 3.916a.9224.9224 0 0 0-.416.447.9392.9392 0 0 0-.048.614 1673.412 1673.412 0 0 0 7.587 28.284c.717 2.591 2.194 3.018 3.924 4.556 1.04.919.9 3.261-.9 3.133-6.844-.475-13.697-.541-20.56-.2-1.312.067-1.805-.453-1.476-1.559.068-.24.211-.454.407-.612 1.871-1.516 3.804-2.591 2.37-5.432-.459-.916-.919-1.837-1.378-2.762-.584-1.168-.478-2.314-.752-3.595a.4423.4423 0 0 0-.152-.244.403.403 0 0 0-.263-.091Zm-9.478-38.237c-.104-.033-.172.003-.204.107a215.9607 215.9607 0 0 0-6.075 23.137.382.382 0 0 0 .006.184c.018.06.049.115.093.159a.379.379 0 0 0 .155.096.374.374 0 0 0 .182.01c.061-.01.119-.036.175-.079.193-.133.303-.315.331-.548.14-1.296.225-2.57.548-3.83 1.646-6.364 3.317-12.729 5.014-19.093.014-.048-.003-.079-.05-.093l-.175-.05Zm.625 1.816c-.032-.148-.058-.148-.077 0-.302 2.199-.752 4.243-1.498 6.521-1.533 4.651-2.737 9.39-3.614 14.217-.037.189-.126.348-.267.477-.089.085-.145.178-.169.277-.047.256.059.385.317.385l9.794-.022c.067 0 .132-.016.191-.045.06-.03.112-.072.153-.125a.4298.4298 0 0 0 .085-.179.4456.4456 0 0 0 0-.199l-4.915-21.307ZM525.028 258.154c4.433 1.346 9.004-.856 10.208-4.919 1.204-4.064-1.414-8.45-5.848-9.796-4.434-1.347-9.004.855-10.208 4.919-1.204 4.063 1.414 8.449 5.848 9.796Z" />
    <path fill="#333"
        d="M553.214 195.912c1.27.465 2.409 1.16 3.417 2.086.172.151.285.361.316.591.282 1.875.338 3.74.169 5.595-.344 3.909-.372 5.973-4.303 7.098-1.258.363-1.694.442-2.433-.797-3.354-5.646-8.346-9.59-14.941-9.219-4.992.277-7.256 5.04-4.458 9.397.455.707 1.09 1.464 1.906 2.271 5.779 5.724 11.995 10.636 17.212 17.314 7.397 9.447 7.777 22.453 3.087 33.075-3.375 7.639-9.296 10.921-17.41 11.149-8.191.235-15.131-.684-21.726-4.642-4.472-2.691-5.527-8.016-4.873-12.864.028-.219.141-.37.338-.456 2.212-.987 4.052-.985 5.519.007 3.333 2.255 6.68 4.483 10.041 6.685 16.319 10.686 20.981-12.024 14.547-21.984-1.19-1.836-3.164-3.991-5.92-6.464-5.955-5.332-12.811-10.465-17.458-17.043-5.021-7.098-3.783-16.282 3.937-20.767 9.499-5.517 23.161-4.656 33.033-1.032ZM498.797 259.668c0-.081-.037-.11-.112-.086l-.225.071c-.145.043-.218.138-.218.285l-.084 13.882c0 .205-.104.318-.31.342-1.399.143-2.081-1.239-2.686-2.207-.126-.204-.307-.337-.541-.398-1.078-.285-1.814-.428-2.208-.428a8993.714 8993.714 0 0 0-43.769.022c-.961.005-1.512-.42-1.653-1.275-.049-.307-.005-.622.127-.903s.345-.515.612-.67c1.42-.819 3.206-1.267 3.213-3.417.014-9.848.007-19.708-.021-29.58 0-.106-.033-.209-.095-.294a.4986.4986 0 0 0-.25-.183c-2.981-1.02-5.775-2.432-8.381-4.236a.445.445 0 0 1-.161-.195.4546.4546 0 0 1-.028-.253.469.469 0 0 1 .112-.23.4635.4635 0 0 1 .218-.134l7.249-1.858c.394-.099.744-.33.995-.655s.388-.726.39-1.139c.028-9.316-.007-18.467-.106-27.451-.035-3.261-2.805-2.456-3.375-4.535-.302-1.111.591-1.908 1.681-1.922 6.094-.081 12.187-.154 18.281-.221.872-.009 1.575.368 2.11 1.132.118.167.198.359.234.562.036.203.027.411-.027.61s-.151.382-.284.538a1.374 1.374 0 0 1-.486.362c-2.693 1.189-3.347 1.466-3.375 4.72-.075 8.647-.077 17.762-.007 27.344.005.413.202.677.591.791l7.024 2.093c.253.076.286.206.098.391-2.029 1.994-4.399 3.403-7.108 4.229-.474.142-.708.463-.703.961l.098 26.291c.002.088.037.171.099.232.062.061.145.096.231.096 4.707-.034 9.422-.062 14.147-.086 4.346-.019 6.811-.095 7.397-.228 4.999-1.11 7.341-5.901 8.712-10.593.066-.214.206-.335.422-.363 4.24-.541 3.501 4.243 3.234 6.991-.52 5.261-.246 10.672-.45 15.997a.2218.2218 0 0 1-.061.137.1929.1929 0 0 1-.129.062l-.302.036c-.122.014-.183-.041-.183-.164l.063-14.473ZM135.369 365.253c2.656 1.061 4.096 2.428 4.321 4.101l-3.562 6.97c-2.022-.178-3.578-.632-4.666-1.362-1.102-.702-1.873-1.781-2.313-3.236l6.22-6.473Zm24.407-25.279c-2.656-1.061-4.115-2.423-4.379-4.087l3.583-7.011c2.022.178 3.578.632 4.666 1.362 1.127.72 1.91 1.808 2.35 3.264l-6.22 6.472Zm-3.124.797c2.17 1.605 3.805 4.076 4.906 7.414-.301 1.699-.925 2.706-1.873 3.022-.91.306-2.43.048-4.561-.776l-.419-5.508c-1.529-.867-2.981-1.357-4.355-1.47-1.36-.139-2.841-.011-4.445.384-.181 1.863.491 3.791 2.016 5.785 1.426.867 2.617 1.334 3.572 1.4 1.369 1.766.961 3.574-1.225 5.422-4.396-2.31-8.172-3.052-11.33-2.224-.35 1.663.23 3.768 1.74 6.316 3.308.79 6.705.817 10.19.081 1.473.713 2.263 1.787 2.371 3.223.133 1.455-.387 2.821-1.561 4.099-2.601-.115-4.872-.439-6.813-.971-1.916-.514-4.287-1.534-7.112-3.058-2.313-2.578-3.964-4.986-4.953-7.224-.974-2.266-1.29-4.552-.947-6.86 3.476-2.626 7.208-3.048 11.195-1.266-1.68-1.431-2.915-3.061-3.707-4.889-.792-1.829-.979-3.474-.563-4.937 2.313-1.566 5.114-2.168 8.405-1.805 3.33.354 6.486 1.635 9.469 3.842ZM167.134 352.728c3.144.562 6.622 1.927 10.435 4.092 3.813 2.166 6.611 4.995 8.392 8.487 1.782 3.493 2.177 6.442 1.187 8.849-.979 2.378-2.386 4.025-4.221 4.939-1.823.885-4.196 1.302-7.117 1.249-3.62-.763-6.857-1.746-9.713-2.949-1.96 4.022-3.411 6.971-4.354 8.846-1.277.253-2.889-.296-4.837-1.647-1.936-1.379-3.006-2.756-3.211-4.13 4.429-5.379 8.598-11.255 12.507-17.629l1.989-5.368-1.795-1.281c-.337-.715-.428-1.431-.274-2.147.181-.701.518-1.138 1.012-1.311Zm8.615 8.298-5.566 7.948c-.276.612-1.116 2.353-2.52 5.224 3.244.969 5.7 1.368 7.369 1.199 2.285-.729 3.914-2.319 4.889-4.769.575-1.526.496-3.177-.235-4.955-.72-1.806-2.032-3.355-3.937-4.647ZM212.389 386.248l-6.038 5.714c-1.369 3.952-2.691 8.618-3.966 13.995-1.118.461-2.634.163-4.549-.894-1.886-1.046-3.286-2.401-4.2-4.066l3.071-3.528-.445-.927c-4.408 2.067-7.147 3.358-8.217 3.871-3.329-1.543-5.58-3.465-6.753-5.766-1.165-2.33-1.389-4.782-.674-7.356 1.006-3.575 3.421-6.32 7.245-8.233 3.832-1.942 7.947-2.069 12.345-.38 1.078 1.536 1.932 3.787 2.563 6.753.539-2.185 1.264-3.699 2.175-4.542 2.5.573 4.33 1.265 5.491 2.076 1.19.823 1.84 1.917 1.952 3.283Zm-13.956-3.257c-2.302.168-4.308.954-6.016 2.358-1.709 1.404-2.845 3.077-3.409 5.021-.564 1.944-.367 3.56.592 4.848 3.01-.964 6.138-2.011 9.386-3.14l1.701-3.403c-.331-2.248-1.083-4.143-2.254-5.684ZM213.934 393.96l1.485-8.46c4.097-.6 7 .145 8.708 2.233l-3.765 6.852c-.778 2.318-2.189 7.367-4.231 15.145-1.47.445-3.185.208-5.144-.711-1.93-.91-3.222-2.025-3.877-3.343 2.789-3.972 5.063-7.877 6.824-11.716Zm12.512-13.761c-.215 1.148-.823 2.017-1.824 2.605-.972.597-2.044.717-3.217.358-1.144-.35-2.051-1.075-2.722-2.175-.67-1.1-.898-2.224-.683-3.372.251-1.17.888-2.029 1.912-2.579 1.031-.579 2.132-.689 3.305-.33 1.173.359 2.066 1.079 2.677 2.161.619 1.052.802 2.163.552 3.332ZM250.312 398.77l-2.876 5.832c-.737 3.849-1.114 7.772-1.129 11.768-1.114.647-2.662.659-4.644.035-1.978-.655-3.559-1.712-4.741-3.173 1.008-4.23 2.665-9 4.972-14.309-.109-1.179-.58-2.103-1.412-2.773-2.165.651-4.757 2.011-7.774 4.082-.668 3.581-1.678 7.827-3.031 12.737-1.534.562-3.378.481-5.532-.24-2.12-.746-3.406-1.697-3.859-2.852 2.502-4.518 4.603-8.823 6.302-12.912l-.482-7.317c2.63-1.524 5.473-1.724 8.528-.599.187 1.288.092 2.706-.284 4.254l-1.833 1.781.353.775c3.048-2.282 6.238-4.036 9.567-5.261 2.318.661 4.138 1.768 5.462 3.319 1.324 1.552 2.129 3.17 2.413 4.853ZM252.405 397.238c-.628-.792-.92-1.556-.875-2.291.044-.734.415-1.548 1.114-2.442l6.451.739-.163-7.999c2.146-.954 4.031-1.407 5.656-1.36 1.655.05 2.899.572 3.729 1.567l-2.831 7.233 7.926-.796c1.1 1.11 1.006 2.672-.282 4.684l-8.638-.373c-.326 2.341-.823 5.498-1.492 9.472-.667 3.942-1.103 6.582-1.306 7.918 2.44-.744 4.829-1.908 7.167-3.492 1.098.126 1.815.449 2.152.97.338.521.408 1.389.212 2.603-3.602 2.706-7.43 4.3-11.482 4.783-3.918-.737-6.284-2.494-7.1-5.272 2.259-5.375 4.217-10.869 5.876-16.48l-6.114.536ZM277.057 403.773l-.314-8.557c3.896-1.773 6.902-1.907 9.016-.401l-2.261 7.679c-.279 2.453-.606 7.712-.982 15.776-1.35.857-3.083 1.131-5.199.821-2.085-.309-3.587-1.002-4.505-2.076 1.905-4.628 3.32-9.042 4.245-13.242Zm9.4-16.869c.03 1.165-.385 2.177-1.245 3.034-.829.858-1.856 1.286-3.083 1.284-1.196-.002-2.238-.433-3.127-1.292-.888-.86-1.347-1.873-1.377-3.038.001-1.196.447-2.208 1.337-3.035.89-.857 1.949-1.285 3.175-1.283 1.227.002 2.254.432 3.081 1.292.827.829 1.24 1.842 1.239 3.038ZM313.385 397.943l-1.592 6.481c.08 3.934.526 7.833 1.338 11.697-.95.953-2.455 1.421-4.514 1.402-2.062-.048-3.82-.604-5.274-1.665.106-4.383.731-9.478 1.878-15.285-.351-1.106-1.001-1.86-1.95-2.261-1.973 1.267-4.214 3.345-6.724 6.233.092 3.656-.012 8.054-.312 13.195-1.378.994-3.19 1.461-5.437 1.399-2.218-.096-3.668-.634-4.348-1.616 1.501-5.102 2.655-9.878 3.462-14.328l-1.985-6.923c2.245-2.248 4.972-3.279 8.179-3.094.449 1.189.65 2.586.604 4.192l-1.415 2.26.504.645c2.496-3.103 5.237-5.737 8.226-7.902 2.393-.045 4.395.487 6.006 1.596 1.61 1.108 2.729 2.433 3.354 3.974ZM333.292 405.849l-.722-.447c-2.973 4.286-4.906 7.127-5.799 8.523-3.612.665-6.451.355-8.515-.933-2.035-1.294-3.23-3.25-3.586-5.868-.25-1.763-.129-3.627.363-5.591.518-2.001 1.331-3.896 2.44-5.686 1.109-1.791 2.605-3.387 4.488-4.789 1.884-1.401 3.959-2.376 6.227-2.924 1.566.491 3.217 1.81 4.954 3.956-.283-2.164-.243-3.758.12-4.782 2.464-1.063 4.349-1.586 5.653-1.57 1.334.01 2.397.553 3.188 1.628l-3.023 9.021c-.136 5.366.072 13.275.624 23.725-.947 2.224-2.426 4.021-4.439 5.389-1.978 1.392-4.51 2.518-7.596 3.378-5.474-1.296-8.972-3.606-10.495-6.932.776-1.934 1.868-3.344 3.277-4.229 1.413-.855 2.857-1.027 4.333-.516.422 1.285.934 2.36 1.537 3.227.638.891 1.557 1.796 2.758 2.715.632-.113 1.211-.37 1.736-.772.559-.378.925-.807 1.096-1.285.217-2.717.253-6.476.107-11.276l1.274-3.962Zm-.357-9.522-.038.056c-1.345-1.828-2.805-3.018-4.381-3.569-1.958 1.513-3.388 3.329-4.29 5.449-.876 2.083-1.16 4.187-.852 6.314.304 2.096 1.151 3.426 2.542 3.987 2.248-2.614 4.566-5.37 6.955-8.268l.064-3.969ZM359.267 370.912c1.37-1.622 2.824-2.882 4.361-3.778 1.537-.895 3.004-1.308 4.4-1.238l.326 15.696 2.353 14.378c3.298-2.194 6.792-4.827 10.482-7.901.856-.019 1.516.3 1.981.959.464.659.719 1.413.764 2.262.037.819-.062 1.565-.296 2.239l-13.945 8.315c-3.556.372-5.956-.398-7.201-2.308.243-6.695-.027-13.542-.808-20.542l-2.417-8.082ZM379.897 360.132c1.213-1.764 2.54-3.173 3.979-4.225 1.44-1.052 2.851-1.613 4.233-1.683l1.656 15.704 3.541 14.179c3.066-2.53 6.287-5.521 9.665-8.972.842-.106 1.521.149 2.035.763.514.614.829 1.344.946 2.19.105.818.071 1.576-.102 2.275l-13.044 9.734c-3.475.73-5.907.199-7.296-1.591-.33-6.736-1.178-13.574-2.543-20.514l-3.07-7.86ZM411.469 342.191l-.632.752c-1.247 3.114-1.844 6.33-1.791 9.647.064 3.272.678 6.059 1.843 8.363 1.189 2.285 2.538 3.829 4.048 4.631 1.534.784 3.384.994 5.55.63 2.286-3.282 3.952-6.575 4.998-9.879.829-.767 1.583-1.025 2.26-.773.701.233 1.275.844 1.721 1.833-.403 2.11-1.224 4.436-2.462 6.977-1.213 2.523-2.675 4.929-4.385 7.218-4.11 2.072-7.747 2.66-10.909 1.765-3.162-.895-5.637-3.093-7.424-6.593-1.568-3.211-2.299-7.534-2.191-12.969.872-3.44 2.038-6.512 3.498-9.218 1.484-2.724 3.461-5.287 5.932-7.688 4.672-1.32 8.392-.009 11.16 3.932.031 1.373-.517 2.779-1.644 4.22-1.142 1.414-2.616 2.32-4.423 2.719-1.902-3.264-3.619-5.119-5.149-5.567ZM133.005 96.2013l-.478.8991c-.554 3.4056-.409 6.7646.434 10.0756.844 3.264 2.144 5.916 3.899 7.957 1.777 2.017 3.544 3.254 5.302 3.712 1.778.433 3.748.219 5.909-.642 1.593-3.813 2.539-7.494 2.839-11.044.679-.959 1.399-1.39 2.162-1.293.783.073 1.524.553 2.222 1.442.082 2.207-.217 4.725-.898 7.555-.659 2.806-1.604 5.552-2.836 8.237-3.772 3.019-7.406 4.443-10.9 4.271-3.495-.172-6.585-1.806-9.271-4.904-2.391-2.857-4.176-7.021-5.356-12.491.088-3.647.569-6.993 1.44-10.0382.893-3.0697 2.336-6.0908 4.33-9.0633 4.535-2.3941 8.706-1.9339 12.515 1.3805.359 1.3678.124 2.9028-.704 4.6052-.849 1.6783-2.163 2.9244-3.943 3.7378-2.75-2.8333-4.972-4.2989-6.666-4.3967ZM183.805 65.206l.331 9.529c1.97 3.951 4.477 8.3376 7.521 13.1597-.364 1.3618-1.517 2.5871-3.458 3.676-1.915 1.0702-3.75 1.4739-5.503 1.2112l-.612-5.2657-.937-.2056c-1.26 5.5391-2.038 8.9848-2.334 10.3369-3.165 2.0909-5.932 2.9135-8.3 2.4665-2.384-.474-4.272-1.9147-5.664-4.3216-1.926-3.355-2.386-7.4754-1.379-12.3614.992-4.9138 3.453-8.8697 7.384-11.8675 1.763.0204 3.898.7333 6.405 2.1387-1.224-1.9791-1.854-3.6813-1.891-5.1065 1.959-1.9647 3.588-3.22 4.886-3.7659 1.324-.5646 2.508-.4392 3.551.3762Zm-10.976 10.9326c-1.308 2.2787-1.991 4.6945-2.049 7.2474-.058 2.5529.431 4.7494 1.467 6.5896 1.037 1.8402 2.312 2.7431 3.825 2.7087 1.178-3.4799 2.372-7.1276 3.58-10.9431l-1.371-3.893c-1.81-1.2034-3.627-1.7732-5.452-1.7096ZM206.712 57.9284l.791.5417c.863-2.0132 2.36-5.3819 4.49-10.1061 2.011-.4264 3.85-.169 5.519.7723 1.668.9413 2.938 2.5438 3.81 4.8074-.705 1.4913-1.73 2.6353-3.075 3.4322-1.356.7667-2.749 1.0795-4.178.9386-.29-.9519-.91-1.8815-1.859-2.7891-.21.4742-.662 1.4202-1.358 2.8381-.696 1.4178-1.268 2.6073-1.715 3.5685 1.341 4.5296 2.477 9.2007 3.409 14.0135-1.089 1.4504-2.735 2.5008-4.939 3.1509-2.215.6198-3.805.5494-4.772-.2114.127-5.0667-.014-10.2773-.424-15.6317l-3.835-6.3628c.793-1.5297 1.851-2.7751 3.174-3.7363 1.342-1.0043 2.68-1.6759 4.013-2.015.713.9064 1.291 2.2549 1.732 4.0456l-.783 2.7436ZM241.993 47.539c2.038-3.9598 3.728-6.8235 5.071-8.591 4.191-.51 7.412.0212 9.663 1.5936 2.25 1.5724 3.979 4.1616 5.187 7.7676-.473 3.6153-1.817 6.8337-4.032 9.6552-2.188 2.7836-5.073 5.3478-8.656 7.6924-1.932.0593-3.643-.1211-5.132-.5413.311 6.7842.403 11.5417.278 14.2726-1.4 1.192-3.205 1.8617-5.415 2.009-2.173.1727-3.769-.2098-4.789-1.1476.884-3.8926 1.529-8.5854 1.937-14.0785.435-5.5309.561-10.2343.379-14.1101l-3.072-7.8961c2.003-2.5185 4.707-3.8565 8.112-4.014.689 1.1014 1.054 2.5119 1.095 4.2316l-1.262 2.501.636.6556Zm6.282 13.564c1.778-1.8867 3.082-3.6954 3.913-5.426.831-1.7305 1.274-3.7748 1.328-6.1329-.301-1.3092-.925-2.4074-1.871-3.2944-.947-.887-2.04-1.4676-3.28-1.7419-1.556 1.6469-3.303 4.1469-5.24 7.5001.303 3.1995.531 6.0228.685 8.4697 1.463.4582 2.951.6666 4.465.6254ZM290.998 35.3873c3.413.514 5.671 1.9072 6.772 4.1796 1.134 2.2414 1.155 4.8991.062 7.9729-5.174 2.3807-10.364 4.0246-15.57 4.9318.276 1.9927 1.263 3.6376 2.963 4.9348 3.595-.4731 6.822-1.6611 9.682-3.5639 2.178-.0656 3.031 1.1433 2.559 3.6267-1.276 1.244-3.285 2.3228-6.026 3.2366-2.709.9148-5.25 1.4662-7.622 1.6543-3.729-.7152-6.482-2.1386-8.259-4.2703-1.777-2.1318-2.586-4.6039-2.427-7.4165.261-3.0657 1.491-5.8475 3.692-8.3455 4.757-3.7691 9.482-6.0826 14.174-6.9405Zm-2.743 4.5792-.92.3577c-1.563 1.2037-2.796 2.625-3.696 4.2638-.9 1.6068-1.4 3.1931-1.499 4.7589 2.415-.667 5.127-1.6777 8.134-3.0321.64-2.8628-.033-4.9789-2.019-6.3483ZM340.366 52.2042l-3.361 5.9063c-1.006 3.9642-1.642 8.0258-1.906 12.1849-1.201.6097-2.815.5327-4.844-.2311-2.023-.7951-3.605-1.9868-4.748-3.575 1.313-4.3462 3.337-9.2161 6.071-14.6098-.041-1.2331-.475-2.2223-1.301-2.9676-2.298.5529-5.085 1.82-8.36 3.8012-.918 3.6901-2.235 8.052-3.949 13.0856-1.635.496-3.553.3064-5.754-.5689-2.165-.8984-3.447-1.9618-3.848-3.1902 2.889-4.56 5.347-8.9197 7.372-13.079l-.051-7.6442c2.838-1.4354 5.815-1.4799 8.931-.1334.115 1.3515-.072 2.8221-.56 4.4117l-2.021 1.7489.32.8272c3.32-2.2006 6.754-3.8429 10.303-4.9266 2.375.8218 4.206 2.0785 5.49 3.7701 1.285 1.6916 2.023 3.4215 2.216 5.1899ZM355.802 56.5968c-.345-1.033-.376-1.9065-.093-2.6205.283-.714.906-1.38 1.871-1.9979l5.963 3.2444 2.458-8.025c2.376-.1151 4.338.1669 5.885.846 1.576.6935 2.601 1.6967 3.075 3.0096l-5.089 6.099 7.883 2.2902c.696 1.5326.095 3.0499-1.802 4.552l-8.187-3.7309c-1.078 2.2039-2.589 5.1531-4.532 8.8477-1.931 3.6647-3.213 6.1227-3.846 7.3738 2.591.2083 5.269-.0212 8.035-.6886 1.015.5516 1.6 1.1524 1.754 1.8024.154.65-.062 1.541-.648 2.6731-4.35 1.2921-8.552 1.3903-12.608.2947-3.527-2.2568-5.228-4.9262-5.104-8.0082 3.93-4.4718 7.61-9.1778 11.04-14.1181l-6.055-1.8437ZM393.915 80.8708l.035 1.0512c1.941-.3881 5.216-.9899 9.826-1.8054 1.406 1.6088 2.219 3.4624 2.439 5.5609.22 2.0984-.259 4.2186-1.438 6.3605-1.473.2275-2.867-.0462-4.181-.8211-1.298-.8023-2.284-1.9061-2.959-3.3115.537-.8301.879-1.9519 1.025-3.3653-.46.0862-1.397.2255-2.812.4177-1.414.1922-2.594.3647-3.54.5177-2.579 3.9119-5.373 7.7181-8.382 11.4187-1.652-.1522-3.315-1.0562-4.99-2.7119-1.658-1.6831-2.472-3.1961-2.442-4.539 3.77-2.8708 7.5-6.0744 11.189-9.6107l2.561-7.3005c1.549-.1687 3.035.0756 4.457.733 1.464.6495 2.683 1.491 3.656 2.5243-.274 1.1942-.945 2.5236-2.013 3.9881l-2.431.8933ZM408.553 108.518l5.891-2.96c2.171-2.486 4.557-5.473 7.156-8.964 1.353.6299 2.597 1.8589 3.732 3.687 1.136 1.829 1.657 3.678 1.564 5.549-2.871 2.554-6.812 5.163-11.822 7.827-.45 1.173-.329 2.613.362 4.319 2.815.421 5.388.469 7.719.143 5.187-4.246 8.64-6.929 10.361-8.049 2.131 1.713 3.544 3.206 4.237 4.481.714 1.299.877 2.667.489 4.104l-8.875 2.731c-8.163 6.536-14.499 12.049-19.009 16.538-3.878.583-7.945-1.679-12.2-6.784-.878-2.595-1.301-5.103-1.269-7.526.054-2.399.55-4.46 1.49-6.183 1.95-.375 3.633-.187 5.048.563 1.395.774 2.279 1.977 2.653 3.61-1.537 2.632-2.354 5.267-2.451 7.906.842 1.107 1.687 1.591 2.535 1.451 4.676-3.722 7.461-5.916 8.353-6.584l4.296-1.456-.06-.935c-2.373.181-4.84.206-7.402.074-1.83-2.671-2.984-5.195-3.46-7.572-.477-2.377-.256-4.367.662-5.97Z" />
</svg>